<svg width="25" height="23" viewBox="0 0 25 23" fill="none" xmlns="http://www.w3.org/2000/svg">
<g clip-path="url(#clip0_54_19)">
<path d="M26 23H0V9.5H25V7.5H0V0H26V23ZM11.9795 2.5C11.1149 2.5 10.417 3.17 10.417 4C10.417 4.83 11.1149 5.5 11.9795 5.5C12.8439 5.49983 13.542 4.8299 13.542 4C13.542 3.1701 12.8439 2.50017 11.9795 2.5ZM16.1455 2.5C15.2811 2.50017 14.583 3.1701 14.583 4C14.583 4.8299 15.2811 5.49983 16.1455 5.5C17.0101 5.5 17.708 4.83 17.708 4C17.708 3.17 17.0101 2.5 16.1455 2.5ZM20.3125 2.5C19.4479 2.5 18.75 3.17 18.75 4C18.75 4.83 19.4479 5.5 20.3125 5.5C21.1771 5.5 21.875 4.83 21.875 4C21.875 3.17 21.1771 2.5 20.3125 2.5Z" fill="white"/>
</g>
<defs>
<clipPath id="clip0_54_19">
<rect width="25" height="23" rx="1" fill="white"/>
</clipPath>
</defs>
</svg>
