<svg width="24" height="24" viewBox="0 0 24 24" fill="none" xmlns="http://www.w3.org/2000/svg">
<g clip-path="url(#clip0_1_684)">
<path fill-rule="evenodd" clip-rule="evenodd" d="M12 0.295898C5.373 0.295898 0 5.6679 0 12.2959C0 17.5979 3.438 22.0959 8.206 23.6829C8.806 23.7939 9.026 23.4229 9.026 23.1059C9.026 22.8199 9.015 21.8749 9.01 20.8719C5.672 21.5979 4.967 19.4559 4.967 19.4559C4.421 18.0689 3.635 17.6999 3.635 17.6999C2.546 16.9549 3.717 16.9709 3.717 16.9709C4.922 17.0559 5.556 18.2079 5.556 18.2079C6.626 20.0419 8.363 19.5119 9.048 19.2049C9.156 18.4289 9.467 17.8999 9.81 17.5999C7.145 17.2969 4.343 16.2679 4.343 11.6699C4.343 10.3599 4.812 9.2889 5.58 8.4489C5.455 8.1459 5.044 6.9259 5.696 5.2729C5.696 5.2729 6.704 4.9509 8.997 6.5029C9.954 6.2369 10.98 6.1039 12 6.0989C13.02 6.1039 14.047 6.2369 15.006 6.5029C17.296 4.9499 18.303 5.2729 18.303 5.2729C18.956 6.9259 18.545 8.1459 18.421 8.4489C19.19 9.2889 19.656 10.3599 19.656 11.6699C19.656 16.2789 16.849 17.2939 14.177 17.5909C14.607 17.9629 14.991 18.6939 14.991 19.8129C14.991 21.4189 14.977 22.7109 14.977 23.1059C14.977 23.4249 15.193 23.7999 15.801 23.6819C20.567 22.0929 24.001 17.5969 24.001 12.2969C24 5.6689 18.627 0.295898 12 0.295898Z" fill="white"/>
<path d="M4.54503 17.5259C4.51903 17.5859 4.42503 17.6039 4.33903 17.5629C4.25203 17.5239 4.20303 17.4419 4.23103 17.3829C4.25703 17.3219 4.35103 17.3049 4.43803 17.3459C4.52503 17.3839 4.57503 17.4659 4.54503 17.5259Z" fill="white"/>
<path d="M5.03097 18.0679C4.97397 18.1209 4.86197 18.0959 4.78597 18.0129C4.70697 17.9289 4.69297 17.8169 4.75097 17.7639C4.80997 17.7109 4.91797 17.7359 4.99697 17.8199C5.07597 17.9029 5.09097 18.0139 5.03097 18.0679Z" fill="white"/>
<path d="M5.50404 18.759C5.43004 18.81 5.31004 18.762 5.23604 18.656C5.16204 18.549 5.16204 18.421 5.23804 18.37C5.31204 18.319 5.43104 18.365 5.50604 18.471C5.57904 18.579 5.57904 18.707 5.50404 18.759Z" fill="white"/>
<path d="M6.15195 19.4268C6.08595 19.4998 5.94595 19.4798 5.84395 19.3808C5.73895 19.2838 5.70995 19.1468 5.77595 19.0738C5.84295 19.0008 5.98395 19.0218 6.08695 19.1198C6.19095 19.2168 6.22195 19.3548 6.15195 19.4268Z" fill="white"/>
<path d="M7.04695 19.814C7.01795 19.908 6.88295 19.951 6.74695 19.911C6.61095 19.87 6.52195 19.76 6.54995 19.665C6.57795 19.57 6.71395 19.526 6.85095 19.569C6.98595 19.609 7.07495 19.719 7.04695 19.814Z" fill="white"/>
<path d="M8.02894 19.886C8.03194 19.985 7.91694 20.067 7.77394 20.069C7.63094 20.072 7.51394 19.992 7.51294 19.895C7.51294 19.795 7.62594 19.714 7.76894 19.711C7.91194 19.708 8.02894 19.788 8.02894 19.886Z" fill="white"/>
<path d="M8.94302 19.7308C8.96002 19.8268 8.86102 19.9268 8.71902 19.9528C8.58002 19.9788 8.45102 19.9188 8.43302 19.8228C8.41602 19.7238 8.51702 19.6248 8.65602 19.5988C8.79702 19.5738 8.92502 19.6318 8.94302 19.7308Z" fill="white"/>
</g>
<defs>
<clipPath id="clip0_1_684">
<rect width="24" height="24" fill="white"/>
</clipPath>
</defs>
</svg>
