<svg width="24" height="24" viewBox="0 0 24 24" fill="none" xmlns="http://www.w3.org/2000/svg">
<g clip-path="url(#clip0_1_679)">
<path d="M20.5243 20.4932H16.955V14.9036C16.955 13.5707 16.9313 11.8554 15.0985 11.8554C13.2397 11.8554 12.9548 13.3071 12.9548 14.8075V20.4932H9.38673V8.99836H12.8136V10.5687H12.8611C13.5602 9.37464 14.8588 8.66125 16.2416 8.71229C19.8596 8.71229 20.5255 11.0922 20.5255 14.1867L20.5243 20.4932ZM5.35927 7.42678C4.21501 7.42678 3.28797 6.49974 3.28797 5.35548C3.28797 4.21122 4.21501 3.28418 5.35927 3.28418C6.50353 3.28418 7.43057 4.21122 7.43057 5.35548C7.43057 6.49974 6.50353 7.42678 5.35927 7.42678ZM7.14332 20.4932H3.57047V8.99836H7.14332V20.4932ZM22.3036 -0.0299009H1.77693C0.807155 -0.0405838 0.0118699 0.736896 0 1.70667V22.3176C0.0118699 23.2886 0.807155 24.066 1.77693 24.0553H22.3036C23.2757 24.0672 24.0746 23.2897 24.0876 22.3176V1.70548C24.0734 0.733335 23.2745 -0.0441448 22.3036 -0.0310879" fill="white"/>
</g>
<defs>
<clipPath id="clip0_1_679">
<rect width="24" height="24" fill="white"/>
</clipPath>
</defs>
</svg>
