<svg width="201" height="31" viewBox="0 0 201 31" fill="none" xmlns="http://www.w3.org/2000/svg">
<path d="M20.15 8.1995V1.55C20.15 0.6975 19.4525 0 18.6 0H12.4C11.5475 0 10.85 0.6975 10.85 1.55V8.1995C10.85 8.401 10.9275 8.6025 11.0825 8.742L14.9575 12.617C15.2675 12.927 15.748 12.927 16.058 12.617L19.933 8.742C20.0725 8.6025 20.15 8.4165 20.15 8.1995ZM8.1995 10.85H1.55C0.6975 10.85 0 11.5475 0 12.4V18.6C0 19.4525 0.6975 20.15 1.55 20.15H8.1995C8.401 20.15 8.6025 20.0725 8.742 19.9175L12.617 16.0425C12.927 15.7325 12.927 15.252 12.617 14.942L8.742 11.067C8.6025 10.9275 8.4165 10.85 8.1995 10.85ZM10.85 22.8005V29.45C10.85 30.3025 11.5475 31 12.4 31H18.6C19.4525 31 20.15 30.3025 20.15 29.45V22.8005C20.15 22.599 20.0725 22.3975 19.9175 22.258L16.0425 18.383C15.7325 18.073 15.252 18.073 14.942 18.383L11.067 22.258C10.9275 22.3975 10.85 22.5835 10.85 22.8005ZM22.2425 11.0825L18.3675 14.9575C18.0575 15.2675 18.0575 15.748 18.3675 16.058L22.2425 19.933C22.382 20.0725 22.5835 20.1655 22.785 20.1655H29.45C30.3025 20.1655 31 19.468 31 18.6155V12.4155C31 11.563 30.3025 10.8655 29.45 10.8655H22.8005C22.5835 10.85 22.3975 10.9275 22.2425 11.0825Z" fill="#F26E22"/>
<path d="M51.233 24.27C50.225 24.27 49.334 24.225 48.56 24.135C47.786 24.045 47.021 23.892 46.265 23.676C45.455 23.46 44.789 23.172 44.267 22.812C43.745 22.434 43.322 21.948 42.998 21.354C42.674 20.724 42.512 20.004 42.512 19.194V11.904C42.512 11.022 42.692 10.23 43.052 9.528C43.412 8.808 43.898 8.241 44.51 7.827C45.086 7.449 45.77 7.125 46.562 6.855C47.372 6.585 48.164 6.405 48.938 6.315C49.586 6.243 50.369 6.207 51.287 6.207C53.771 6.207 56.147 6.396 58.415 6.774V9.96C56.327 9.456 53.951 9.204 51.287 9.204C48.245 9.204 46.724 10.086 46.724 11.85V18.897C46.724 19.761 47.129 20.373 47.939 20.733C48.767 21.093 50.009 21.273 51.665 21.273C52.547 21.273 53.492 21.138 54.5 20.868V16.791H51.638V14.037H58.523V23.136C57.623 23.46 56.471 23.73 55.067 23.946C53.681 24.162 52.403 24.27 51.233 24.27ZM65.4641 24.27C64.2401 24.27 63.3221 24.162 62.7101 23.946C62.1161 23.712 61.6931 23.307 61.4411 22.731C61.2071 22.137 61.0901 21.255 61.0901 20.085C61.0901 19.041 61.2161 18.222 61.4681 17.628C61.7381 17.034 62.1611 16.611 62.7371 16.359C63.3311 16.089 64.1411 15.954 65.1671 15.954H69.5951V15.063C69.5951 14.505 69.5141 14.091 69.3521 13.821C69.2081 13.551 68.9291 13.362 68.5151 13.254C68.1191 13.146 67.5161 13.092 66.7061 13.092C65.5901 13.092 64.0601 13.2 62.1161 13.416V10.932C63.5381 10.752 65.2031 10.662 67.1111 10.662C68.7851 10.662 70.0721 10.788 70.9721 11.04C71.8901 11.292 72.5471 11.724 72.9431 12.336C73.3391 12.948 73.5371 13.839 73.5371 15.009V24H69.6761V22.812C69.3701 23.334 68.9561 23.703 68.4341 23.919C67.9121 24.153 66.9221 24.27 65.4641 24.27ZM67.0031 21.813C67.7951 21.813 68.3621 21.786 68.7041 21.732C68.9561 21.696 69.1271 21.642 69.2171 21.57C69.3251 21.498 69.4151 21.381 69.4871 21.219C69.5591 21.093 69.5951 20.904 69.5951 20.652V18.114H66.8951C66.2831 18.114 65.8511 18.159 65.5991 18.249C65.3471 18.321 65.1761 18.483 65.0861 18.735C64.9961 18.969 64.9511 19.392 64.9511 20.004C64.9511 20.598 64.9961 21.012 65.0861 21.246C65.1761 21.48 65.3471 21.633 65.5991 21.705C65.8691 21.777 66.3371 21.813 67.0031 21.813ZM77.0053 10.932H80.9473V12.525C81.1993 11.283 82.4863 10.662 84.8083 10.662C86.0323 10.662 86.9593 10.824 87.5893 11.148C88.2193 11.454 88.6423 11.94 88.8583 12.606C89.0743 11.922 89.4883 11.427 90.1003 11.121C90.7303 10.815 91.6753 10.662 92.9353 10.662C94.0693 10.662 94.9423 10.797 95.5543 11.067C96.1663 11.319 96.5893 11.715 96.8233 12.255C97.0753 12.795 97.2013 13.515 97.2013 14.415V24H93.2593V14.955C93.2593 14.379 93.2233 13.974 93.1513 13.74C93.0793 13.488 92.9173 13.317 92.6653 13.227C92.4313 13.137 92.0173 13.092 91.4233 13.092C90.6853 13.092 90.1543 13.137 89.8303 13.227C89.5243 13.317 89.3173 13.488 89.2093 13.74C89.1193 13.974 89.0743 14.379 89.0743 14.955V24H85.1323V14.955C85.1323 14.379 85.0963 13.974 85.0243 13.74C84.9523 13.488 84.7903 13.317 84.5383 13.227C84.3043 13.137 83.8903 13.092 83.2963 13.092C82.5583 13.092 82.0273 13.137 81.7033 13.227C81.3973 13.317 81.1903 13.488 81.0823 13.74C80.9923 13.974 80.9473 14.379 80.9473 14.955V24H77.0053V10.932ZM107.218 24.27C102.592 24.27 100.279 22.857 100.279 20.031V15.333C100.279 13.695 100.801 12.507 101.845 11.769C102.907 11.031 104.536 10.662 106.732 10.662C108.802 10.662 110.314 11.022 111.268 11.742C112.24 12.444 112.726 13.641 112.726 15.333V18.519H104.248V19.707C104.248 20.463 104.518 21.003 105.058 21.327C105.598 21.651 106.57 21.813 107.974 21.813C109.27 21.813 110.728 21.624 112.348 21.246V23.757C110.746 24.099 109.036 24.27 107.218 24.27ZM108.973 16.278V14.388C108.973 13.956 108.793 13.632 108.433 13.416C108.091 13.2 107.506 13.092 106.678 13.092C105.724 13.092 105.085 13.2 104.761 13.416C104.419 13.65 104.248 13.974 104.248 14.388V16.278H108.973ZM121.571 24.27C119.897 24.27 117.827 24.108 115.361 23.784V20.571C118.421 21.039 120.509 21.273 121.625 21.273C123.965 21.273 125.135 20.67 125.135 19.464V18.33C125.135 17.754 124.964 17.313 124.622 17.007C124.298 16.701 123.704 16.548 122.84 16.548H120.788C116.936 16.548 115.01 15.018 115.01 11.958V10.662C115.01 9.132 115.649 8.007 116.927 7.287C118.205 6.567 120.23 6.207 123.002 6.207C124.442 6.207 126.269 6.324 128.483 6.558V9.69C125.765 9.366 123.893 9.204 122.867 9.204C121.445 9.204 120.491 9.321 120.005 9.555C119.483 9.807 119.222 10.203 119.222 10.743V11.985C119.222 12.903 119.996 13.362 121.544 13.362H123.65C125.648 13.362 127.097 13.731 127.997 14.469C128.897 15.207 129.347 16.332 129.347 17.844V19.005C129.347 21.093 128.6 22.506 127.106 23.244C126.386 23.622 125.585 23.883 124.703 24.027C123.839 24.189 122.795 24.27 121.571 24.27ZM138.674 24.27C134.048 24.27 131.735 22.857 131.735 20.031V15.333C131.735 13.695 132.257 12.507 133.301 11.769C134.363 11.031 135.992 10.662 138.188 10.662C140.258 10.662 141.77 11.022 142.724 11.742C143.696 12.444 144.182 13.641 144.182 15.333V18.519H135.704V19.707C135.704 20.463 135.974 21.003 136.514 21.327C137.054 21.651 138.026 21.813 139.43 21.813C140.726 21.813 142.184 21.624 143.804 21.246V23.757C142.202 24.099 140.492 24.27 138.674 24.27ZM140.429 16.278V14.388C140.429 13.956 140.249 13.632 139.889 13.416C139.547 13.2 138.962 13.092 138.134 13.092C137.18 13.092 136.541 13.2 136.217 13.416C135.875 13.65 135.704 13.974 135.704 14.388V16.278H140.429ZM153.756 24.27C149.13 24.27 146.817 22.857 146.817 20.031V15.333C146.817 13.695 147.339 12.507 148.383 11.769C149.445 11.031 151.074 10.662 153.27 10.662C155.34 10.662 156.852 11.022 157.806 11.742C158.778 12.444 159.264 13.641 159.264 15.333V18.519H150.786V19.707C150.786 20.463 151.056 21.003 151.596 21.327C152.136 21.651 153.108 21.813 154.512 21.813C155.808 21.813 157.266 21.624 158.886 21.246V23.757C157.284 24.099 155.574 24.27 153.756 24.27ZM155.511 16.278V14.388C155.511 13.956 155.331 13.632 154.971 13.416C154.629 13.2 154.044 13.092 153.216 13.092C152.262 13.092 151.623 13.2 151.299 13.416C150.957 13.65 150.786 13.974 150.786 14.388V16.278H155.511ZM162.277 5.1H166.219V24H162.277V5.1ZM166.381 16.656L170.674 10.932H175.183L170.647 16.629L175.561 24H171.106L166.381 16.656ZM183.419 24.27C178.793 24.27 176.48 22.857 176.48 20.031V15.333C176.48 13.695 177.002 12.507 178.046 11.769C179.108 11.031 180.737 10.662 182.933 10.662C185.003 10.662 186.515 11.022 187.469 11.742C188.441 12.444 188.927 13.641 188.927 15.333V18.519H180.449V19.707C180.449 20.463 180.719 21.003 181.259 21.327C181.799 21.651 182.771 21.813 184.175 21.813C185.471 21.813 186.929 21.624 188.549 21.246V23.757C186.947 24.099 185.237 24.27 183.419 24.27ZM185.174 16.278V14.388C185.174 13.956 184.994 13.632 184.634 13.416C184.292 13.2 183.707 13.092 182.879 13.092C181.925 13.092 181.286 13.2 180.962 13.416C180.62 13.65 180.449 13.974 180.449 14.388V16.278H185.174ZM191.94 10.932H195.693V13.227C195.693 12.813 195.864 12.408 196.206 12.012C196.548 11.616 196.98 11.292 197.502 11.04C198.042 10.788 198.573 10.662 199.095 10.662H200.499V13.929H199.149C198.033 13.929 197.205 14.1 196.665 14.442C196.143 14.784 195.882 15.351 195.882 16.143V24H191.94V10.932Z" fill="white"/>
</svg>
